# xmcd CD database file
#
# Track frame offsets:
#	150
#	21253
#	43968
#	63930
#	82407
#	104506
#	133126
#	161564
#	189401
#
# Disc length: 2864 seconds
#
# Revision: 1
# Processed by: cddbd v1.5.1PL0 Copyright (c) Steve Scherf et al.
# Submitted via: CDex 1.51
#
DISCID=810b2e09
DTITLE=Mesut BOZOK - Monolenium (Dinlerin Randevusu)
DYEAR=2005
DGENRE=New Age
TTITLE0=The Birth
TTITLE1=Zero Point
TTITLE2=Reincarnation (of Tolorance)
TTITLE3=Judgement Day
TTITLE4=The Rendezvous of Religions
TTITLE5=Zero Point - Remix
TTITLE6=Touching The Peace
TTITLE7=Contact
TTITLE8=Judgement Day - Otherworld Mix
EXTD=YEAR: 2005
EXTT0=
EXTT1=
EXTT2=
EXTT3=
EXTT4=
EXTT5=
EXTT6=
EXTT7=
EXTT8=
PLAYORDER=
